# xmcd CD database file
#
# Track frame offsets:
#	150
#	17927
#	32812
#	52887
#	71745
#	88900
#	109497
#	124855
#	139777
#	156457
#
# Disc length: 2346 seconds
#
# Revision: 1
# Processed by: cddbd v1.5.1PL2 Copyright (c) Steve Scherf et al.
# Submitted via: CDex 1.51
#
DISCID=9309280a
DTITLE=Peder Eide - What A Ride
DYEAR=2003
DGENRE=Contemporary Christian
TTITLE0=That's What Life Is For
TTITLE1=What A Ride
TTITLE2=It's You Oh God
TTITLE3=Hallel
TTITLE4=Your Name
TTITLE5=Overwhelmed
TTITLE6=The Reason We Live
TTITLE7=Relentless Grace
TTITLE8=Trust You More
TTITLE9=Unto You
EXTD=YEAR: 2003
EXTT0=
EXTT1=
EXTT2=
EXTT3=
EXTT4=
EXTT5=
EXTT6=
EXTT7=
EXTT8=
EXTT9=
PLAYORDER=
